<svg xmlns="http://www.w3.org/2000/svg" fill="none" viewBox="0 0 32 32">
<style>
    @media (prefers-color-scheme: dark) {
      path {
        fill: #FAFCFE;
      }
    }
  </style>
<path d="M10.0466 4.23954L0.192193 26.0281C-0.441626 27.4231 0.569466 29 2.09365 29H11.1482C12.9893 29 14.6644 27.9235 15.4491 26.2556L18.7691 19.1747C19.3577 17.901 19.3727 16.4302 18.7993 15.1566L13.8646 4.23954C13.1251 2.58682 10.8011 2.58682 10.0466 4.23954Z" fill="#111C26"/>
<path d="M23.4171 16.8851L19.3275 25.6491C18.6031 27.2108 19.7349 29 21.4553 29H29.6497C31.37 29 32.5018 27.2108 31.7775 25.6491L27.6878 16.8851C26.8427 15.0808 24.2924 15.0808 23.4473 16.8851H23.4171Z" fill="#111C26"/>
<path d="M25.7562 12.6872C28.4122 12.6872 30.5551 10.5438 30.5551 7.8872C30.5551 5.2306 28.3971 3.0872 25.7562 3.0872C23.1153 3.0872 20.9573 5.2306 20.9573 7.8872C20.9573 10.5438 23.1002 12.6872 25.7562 12.6872Z" fill="url(#p)"/>
<defs>
<linearGradient id="p" x1="20.9573" y1="5.4872" x2="30.556" y2="10.2855" gradientUnits="userSpaceOnUse">
<stop stop-color="#133EFF"/>
<stop offset="0.125" stop-color="#5837FF"/>
<stop offset="0.25" stop-color="#7F33F7"/>
<stop offset="0.375" stop-color="#9F31E7"/>
<stop offset="0.5" stop-color="#BA31D3"/>
<stop offset="0.625" stop-color="#D233BA"/>
<stop offset="0.75" stop-color="#E638A0"/>
<stop offset="0.875" stop-color="#F54284"/>
<stop offset="1" stop-color="#FF5068"/>
</linearGradient>
</defs>
</svg>
